<svg xmlns="http://www.w3.org/2000/svg" viewBox="0 0 44 44" shape-rendering="crispEdges">
<rect x="0" y="0" width="44" height="44" rx="9" fill="#3358d4"/>
<rect x="11.5" y="10" width="3" height="3" fill="#ffffff"/>
<rect x="29.5" y="10" width="3" height="3" fill="#ffffff"/>
<rect x="14.5" y="13" width="3" height="3" fill="#ffffff"/>
<rect x="26.5" y="13" width="3" height="3" fill="#ffffff"/>
<rect x="11.5" y="16" width="3" height="3" fill="#ffffff"/>
<rect x="14.5" y="16" width="3" height="3" fill="#ffffff"/>
<rect x="17.5" y="16" width="3" height="3" fill="#ffffff"/>
<rect x="20.5" y="16" width="3" height="3" fill="#ffffff"/>
<rect x="23.5" y="16" width="3" height="3" fill="#ffffff"/>
<rect x="26.5" y="16" width="3" height="3" fill="#ffffff"/>
<rect x="29.5" y="16" width="3" height="3" fill="#ffffff"/>
<rect x="8.5" y="19" width="3" height="3" fill="#ffffff"/>
<rect x="11.5" y="19" width="3" height="3" fill="#ffffff"/>
<rect x="17.5" y="19" width="3" height="3" fill="#ffffff"/>
<rect x="20.5" y="19" width="3" height="3" fill="#ffffff"/>
<rect x="23.5" y="19" width="3" height="3" fill="#ffffff"/>
<rect x="29.5" y="19" width="3" height="3" fill="#ffffff"/>
<rect x="32.5" y="19" width="3" height="3" fill="#ffffff"/>
<rect x="5.5" y="22" width="3" height="3" fill="#ffffff"/>
<rect x="8.5" y="22" width="3" height="3" fill="#ffffff"/>
<rect x="11.5" y="22" width="3" height="3" fill="#ffffff"/>
<rect x="14.5" y="22" width="3" height="3" fill="#ffffff"/>
<rect x="17.5" y="22" width="3" height="3" fill="#ffffff"/>
<rect x="20.5" y="22" width="3" height="3" fill="#ffffff"/>
<rect x="23.5" y="22" width="3" height="3" fill="#ffffff"/>
<rect x="26.5" y="22" width="3" height="3" fill="#ffffff"/>
<rect x="29.5" y="22" width="3" height="3" fill="#ffffff"/>
<rect x="32.5" y="22" width="3" height="3" fill="#ffffff"/>
<rect x="35.5" y="22" width="3" height="3" fill="#ffffff"/>
<rect x="5.5" y="25" width="3" height="3" fill="#ffffff"/>
<rect x="11.5" y="25" width="3" height="3" fill="#ffffff"/>
<rect x="14.5" y="25" width="3" height="3" fill="#ffffff"/>
<rect x="17.5" y="25" width="3" height="3" fill="#ffffff"/>
<rect x="20.5" y="25" width="3" height="3" fill="#ffffff"/>
<rect x="23.5" y="25" width="3" height="3" fill="#ffffff"/>
<rect x="26.5" y="25" width="3" height="3" fill="#ffffff"/>
<rect x="29.5" y="25" width="3" height="3" fill="#ffffff"/>
<rect x="35.5" y="25" width="3" height="3" fill="#ffffff"/>
<rect x="5.5" y="28" width="3" height="3" fill="#ffffff"/>
<rect x="11.5" y="28" width="3" height="3" fill="#ffffff"/>
<rect x="29.5" y="28" width="3" height="3" fill="#ffffff"/>
<rect x="35.5" y="28" width="3" height="3" fill="#ffffff"/>
<rect x="14.5" y="31" width="3" height="3" fill="#ffffff"/>
<rect x="17.5" y="31" width="3" height="3" fill="#ffffff"/>
<rect x="23.5" y="31" width="3" height="3" fill="#ffffff"/>
<rect x="26.5" y="31" width="3" height="3" fill="#ffffff"/>
</svg>
